<svg xmlns="http://www.w3.org/2000/svg" xmlns:xlink="http://www.w3.org/1999/xlink" version="1.1" x="0px" y="0px" width="400px" height="400px" viewBox="0 0 400 400" enable-background="new 0 0 400 400" xml:space="preserve"><style>.style0{fill:	none;}.style1{fill:	#FFFFFF;}.style2{fill:	#DB605A;}.style3{opacity:	0.24;fill:	#231F20;}</style><g><g><path d="M165.443 45.978c-19.898 7.435-31.574 25.976-34.567 36.625c-3.136 11.16-3.67 26.9 0.8 45.1 l36.074-82.512C166.961 45.4 166.2 45.7 165.4 45.978z" class="style0"/><path d="M151.774 172.913c-1.189-1.819-2.311-3.629-3.396-5.435l-20.215 46.2 c6.724 9.2 15.2 20.5 24.6 32.861l19.64-44.924C163.125 189.2 155.8 179.1 151.8 172.913z" class="style1"/><path d="M229.026 58.839c9.87 6.5 23.1 3.7 29.621-6.121s3.749-23.131-6.121-29.621 c-11.87-7.805-23.114-13.251-33.642-16.889l-17.209 39.362C210.414 48.2 219.5 52.6 229 58.839z" class="style1"/><path d="M194.059 230.154l-19.512 44.63c7.726 9.9 15.7 20 23.7 30.064l19.412-44.4 C209.502 250.1 201.5 239.9 194.1 230.154z" class="style1"/><path d="M130.876 82.603c2.994-10.649 14.669-29.19 34.567-36.625c0.755-0.282 1.518-0.539 2.282-0.784 l19.723-45.111c-14.247-0.581-26.39 1.994-36.042 5.483L91.452 142.699c3.786 13.5 9.3 27 16.3 39.779l23.946-54.772 C127.207 109.5 127.7 93.8 130.9 82.603z" class="style1"/><path d="M282.631 340.682l-18.979 43.41c3.251 3.7 6.1 6.8 8.6 9.338c4.199 4.4 9.8 6.6 15.4 6.6 c5.33 0 10.668-1.98 14.815-5.965c8.518-8.185 8.788-21.724 0.604-30.241C298.081 358.6 291 350.6 282.6 340.682z" class="style1"/><path d="M239.628 288.181l-19.317 44.185c7.262 9 14.3 17.5 20.8 25.312l19.203-43.922 C253.646 305.6 246.7 297 239.6 288.181z" class="style1"/><path d="M150.472 5.907c-15.208 5.683-29.152 15.483-40.323 28.341c-9.642 11.099-16.905 24.161-20.453 36.8 c-5.714 20.327-5.542 42.9 0.5 67.018c0.389 1.6 0.8 3.1 1.2 4.654L151.406 5.6 C151.093 5.7 150.8 5.8 150.5 5.907z" class="style2"/><path d="M201.676 45.571l17.209-39.362c-11.352-3.921-21.869-5.736-31.437-6.127l-19.722 45.1 C178.225 41.8 189.6 42 201.7 45.571z" class="style2"/><path d="M131.652 127.705l-23.946 54.772c2.566 4.7 5.3 9.3 8.3 13.8 c2.818 4.3 7 10.3 12.2 17.395l20.215-46.238C140.006 153.5 134.7 140.1 131.7 127.705z" class="style2"/><path d="M172.404 201.654l-19.64 44.924c6.827 8.9 14.2 18.5 21.8 28.207l19.512-44.63 C186.152 219.9 178.8 210.2 172.4 201.654z" class="style2"/><path d="M217.637 260.448l-19.412 44.4c7.458 9.4 14.9 18.6 22.1 27.516l19.317-44.185 C232.326 279.1 224.9 269.7 217.6 260.448z" class="style2"/><path d="M260.288 313.756l-19.203 43.922c8.556 10.3 16.3 19.3 22.6 26.414l18.979-43.409 C275.908 332.7 268.3 323.6 260.3 313.756z" class="style2"/></g><g><path d="M167.565 316.632c9.131-9.618 25.445-27.262 19.466-41.928c-7.996-19.613-41.075-15.825-56.442-11.851 C87.148 274.1 138.7 347 167.6 316.632z" class="style2"/><path d="M207.814 235.569c3.479-12.797 10.085-35.902 25.724-38.407c20.914-3.351 34.9 26.9 39.4 42.1 C285.932 282.2 196.8 276 207.8 235.569z" class="style2"/><path enable-background="new    " d="M175.347 261.889l12.432 14.3 c0.557 0.6 0.8 1.5 0.8 2.321l-0.267 3.794c-0.041 0.6 0.1 1.1 0.3 1.681c0.132 0.345-0.486 0.608-4.735-0.444 c-5.509-1.365-12.447-12.249-14.879-16.324c-0.561-0.941-0.604-2.102-0.111-3.08l0.57-1.131c0.225-0.445 0.55-0.832 0.951-1.129 l0.604-0.447C172.373 260.4 174.3 260.6 175.3 261.889z" class="style3"/><path enable-background="new    " d="M206.195 242.252c0 0 1.138-2.27 2.021-1.391 c0.885 0.9 5 2.9 6.7 4.802c1.752 1.9 4.5 6.9 4.9 8.466c1.109 4.297-0.027 5.812-0.027 5.8 s0.04 0.666-0.885 0.848c-0.926 0.183-1.518 1.049-1.518 1.049S205.69 248.9 206.2 242.252z" class="style3"/><path d="M171.825 262.316c0 0 8.2 16.2 15.2 18.908c7.001 2.7 33.865-17.744 32.853-21.283 c-1.011-3.537-11.48-21.668-16.673-19.974C197.976 241.7 170.3 259.5 171.8 262.316z" class="style2"/></g></g><g></g></svg>