<?xml version="1.0" encoding="utf-8"?>
<!-- Generator: Adobe Illustrator 16.0.0, SVG Export Plug-In . SVG Version: 6.00 Build 0)  -->
<!DOCTYPE svg PUBLIC "-//W3C//DTD SVG 1.1//EN" "http://www.w3.org/Graphics/SVG/1.1/DTD/svg11.dtd">
<svg version="1.1" id="Layer_1" xmlns="http://www.w3.org/2000/svg" xmlns:xlink="http://www.w3.org/1999/xlink" x="0px" y="0px"
	 width="400px" height="400px" viewBox="0 0 400 400" enable-background="new 0 0 400 400" xml:space="preserve">
<g id="_x23_hut-gloves">
	<g>
		<circle fill="#2C2C2C" cx="193.572" cy="211.645" r="188.355"/>
		<g>
			<path fill="#F8F8F8" d="M49.822,205.7c0.624-15.072-1.032-23.663-1.221-30.435c-0.479-17.243,5.745-46.585,12.766-62.113
				c10.575-23.389,19.181-41.516,43.711-52.856c17.91-8.279,41.799-9.667,59.295-0.058c21.185,11.635,31.469,36.435,35.101,56.176
				c3.576,19.439,8.438,40.515,9.973,60.313c0.598,7.703,0.105,28.914-6.043,33.965c-6.141,5.045-22.781,2.764-30.36,3.65
				c-18.088,2.113-36.46,1.783-54.646,3.193C103.681,218.678,57.745,221.516,49.822,205.7z"/>
			<path fill="#E2E1E0" d="M163.219,39.205c-0.161,1.586,2.262,3.517,1.906,5.029c-0.363,1.547-0.936,3.125-1.488,4.582
				c-0.562,1.482-1.189,3.037-1.931,4.413c-0.75,1.392-3.017,1.823-3.934,3.092c-0.924,1.278-0.211,3.954-1.289,5.095
				c-1.081,1.145-3.853,0.515-5.071,1.508s-2.315,1.964-3.655,2.793c-1.334,0.825-1.854,3.236-3.292,3.883
				c-1.428,0.643-3.81-1.343-5.324-0.888c-1.497,0.45-2.288,4.052-3.852,4.304c-1.539,0.248-3.403-2.237-4.992-2.192
				c-1.553,0.044-2.925-0.758-4.512-0.919c-1.586-0.161-3.544,2.27-5.056,1.915c-1.547-0.364-2.283-3.229-3.74-3.782
				c-1.482-0.562-4.411,1.981-5.787,1.24c-1.391-0.75-0.557-5.042-1.826-5.958c-1.278-0.924-4.871,0.985-6.013-0.092
				c-1.145-1.081,0.061-4.379-0.932-5.597c-0.993-1.219-2.128-2.146-2.957-3.485c-0.825-1.335-0.808-2.917-1.455-4.356
				c-0.643-1.428-3.129-2.076-3.584-3.589c-0.45-1.497,0.681-3.31,0.429-4.875c-0.248-1.539,0.504-2.972,0.458-4.561
				c-0.044-1.552-2.426-3.101-2.265-4.687c0.161-1.586-0.176-3.325,0.179-4.837c0.364-1.547,1-3.122,1.553-4.579
				c0.562-1.482,2.41-2.394,3.15-3.769c0.75-1.392,0.138-3.695,1.055-4.964c0.924-1.278,2.216-2.446,3.293-3.587
				c1.081-1.145,3.49-0.886,4.708-1.879c1.218-0.993,1.441-3.417,2.78-4.245c1.334-0.826,2.571-2.233,4.008-2.881
				c1.428-0.643,4.212,2.393,5.726,1.938c1.497-0.45,2.739-0.842,4.304-1.095c1.539-0.248,2.789-2.132,4.378-2.178
				c1.552-0.044,2.953,1.352,4.54,1.513c1.586,0.161,3.102-0.334,4.613,0.021c1.547,0.364,3.164,0.207,4.621,0.759
				c1.482,0.562,2.716,1.514,4.091,2.255c1.392,0.75,2.931,1.167,4.201,2.084c1.278,0.924,3.47,0.864,4.612,1.941
				c1.145,1.081,0.234,4.071,1.227,5.289c0.993,1.219,2.324,2.029,3.153,3.368c0.825,1.335,1.683,2.559,2.331,3.998
				c0.643,1.428,1.831,2.629,2.286,4.142c0.449,1.497-0.722,3.288-0.47,4.853c0.248,1.539,0.695,2.905,0.74,4.494
				C164.183,36.27,163.38,37.618,163.219,39.205z"/>
			<path fill="#FF5A96" d="M62.061,187.183c-7.608-2.709-19.355-2.086-22.111,6.945c-2.838,9.3-3.065,19.675,4.25,25.416
				c12.657,9.934,26.182,9.143,41.999,8.766c8.817-0.211,17.555,1.14,26.34,1.107c8.424-0.032,16.302-0.521,24.752,0.335
				c19.164,1.942,40.017-0.87,58.772-4.93c10.494-2.272,20.484-3.829,23.457-15.634c1.591-6.324-0.496-12.692-4.264-17.834
				c-7.931-10.822-12.019-7.104-20.185-6.44c-9.625,0.783-19.098,0.174-28.582,1.913c-12.265,2.25-24.768,1.335-37.118,1.781
				c-11.806,0.426-23.27-1.512-35.014,0.354C82.854,190.789,72.868,186.39,62.061,187.183z"/>
			<g>
				<path fill="#FF5A96" d="M97.055,116.222l13.885-10.209l17.708,12.847l27.748-18.373l25.551,15.249l14.48-11.726
					c-2.122-6.883-5.044-13.913-8.922-20.454l-8.26,12.734l-25.598-14.176l-21.315,14.905L110.94,82.114L95.142,96.775L77.11,83.431
					c-6.094,8.6-10.696,18.559-15.743,29.721c-0.703,1.554-1.396,3.252-2.078,5.057l20.264-13.168L97.055,116.222z"/>
				<path fill="#FF5A96" d="M99.038,160.097l15.428-14.584l17.501,9.845l24.429-16.772l23.335,10.938l23.828-11.926
					c-1.302-6.741-2.64-13.414-3.849-19.914l-21.438,16.161l-21.147-12.003l-25.158,14.178l-18.23-8.008l-14.699,13.491
					l-26.866-16.043L53.864,136.11c-1.653,6.725-3.027,13.781-3.959,20.471l22.632-12.892L99.038,160.097z"/>
				<path fill="#FF5A96" d="M80.741,188.846l20.601-11.248l15.678,8.021l18.595-8.021l18.595,6.164l17.502-11.268l17.501,8.75
					l19.542-11.725c-0.564-4.992-1.301-10.041-2.138-15.103l-19.957,14.067l-13.432-8.386l-20.842,10.209l-19.689-6.563
					l-16.042,10.574l-17.616-7.292l-17.022,9.844l-19.324-9.844l-14.104,7.324c0.004,0.307,0.006,0.618,0.014,0.917
					c0.061,2.167,0.271,4.524,0.509,7.216l12.852-3.06L80.741,188.846z"/>
			</g>
		</g>
		<g>
			<path fill="#FF5A96" d="M226.959,286.615c-18.785-65.667,50.035-107.494,76.055-46.949
				c11.614,27.026,11.405,90.803-16.926,106.274c-21.074,11.511-56.869,8.934-74.301-15.423
				C202.983,318.216,190.14,268.388,226.959,286.615z"/>
			<path fill="#F8F8F8" d="M235.444,348.66l-1.149,8.133c-0.461,3.26,2.525,6.102,6.267,5.969l42.815-1.525
				c3.495-0.124,6.146-2.808,5.789-5.857l-0.938-7.997c-0.328-2.792-3.072-4.88-6.271-4.771L241.229,344
				C238.259,344.101,235.811,346.074,235.444,348.66z"/>
			<path fill="#F8F8F8" d="M293.781,278.008c-1.557-0.952-3.115-1.905-4.656-2.887c1.502-0.401,3.005-0.804,4.506-1.205
				c3.008-0.805,1.732-5.478-1.287-4.67c-2.496,0.668-4.991,1.336-7.486,2.004c-0.334,0.09-0.607,0.233-0.839,0.404
				c-1.104-0.812-2.186-1.66-3.231-2.555c-3.596-3.076-6.585-6.768-10.03-10.006c3.466-2.145,6.935-4.285,10.407-6.421
				c0.244-0.15,0.488-0.298,0.732-0.445c0.055,0.034,0.098,0.074,0.157,0.106c2.823,1.531,5.794,2.402,8.981,2.733
				c1.303,0.136,2.422-1.21,2.422-2.421c0-1.422-1.115-2.285-2.422-2.421c-1.486-0.154-2.924-0.532-4.309-1.063
				c1.617-1.138,3.135-2.397,4.436-3.949c1.988-2.373-1.419-5.815-3.425-3.424c-1.16,1.383-2.538,2.561-4.017,3.627
				c-0.203-1.361-0.482-2.711-0.861-4.041c-0.852-2.992-5.525-1.721-4.67,1.287c0.529,1.857,0.861,3.721,0.992,5.64
				c-1.264,0.738-2.527,1.461-3.738,2.206c-2.197,1.354-4.387,2.715-6.582,4.072c-0.101-3.387-0.21-6.771,0.018-10.131
				c0.027-0.009,0.057-0.009,0.084-0.02c2.936-1.187,5.703-2.625,8.291-4.457c2.522-1.785,0.107-5.986-2.445-4.182
				c-1.639,1.16-3.359,2.205-5.162,3.086c0.057-0.265,0.101-0.529,0.164-0.793c0.732-3.027-3.936-4.32-4.668-1.287
				c-0.123,0.506-0.22,1.012-0.318,1.516c-1.852-1.381-3.701-2.764-5.553-4.145c-1.049-0.783-2.705-0.171-3.312,0.869
				c-0.723,1.234-0.183,2.527,0.869,3.312c2.393,1.786,4.785,3.572,7.178,5.358c0.043,0.033,0.092,0.049,0.137,0.076
				c-0.199,3.192-0.121,6.387-0.038,9.598c-3.604-2.945-7.358-5.77-11.251-8.307c0.414-2.375,0.557-4.779,0.383-7.199
				c-0.221-3.091-5.064-3.115-4.842,0c0.107,1.5,0.085,2.973-0.055,4.438c-0.475-0.271-0.947-0.547-1.426-0.809
				c-2.737-1.491-5.184,2.688-2.445,4.182c0.733,0.4,1.463,0.814,2.191,1.238c-2.28,1.511-4.625,2.914-7.043,4.201
				c-2.752,1.465-0.309,5.646,2.443,4.182c2.988-1.59,5.869-3.35,8.648-5.283c0.152-0.105,0.285-0.223,0.402-0.345
				c4.029,2.638,7.933,5.581,11.607,8.704c-3.688,2.297-7.365,4.607-10.86,7.155c-2.231-2.082-5.681-2.31-8.302-3.783
				c-2.72-1.53-5.163,2.651-2.444,4.182c1.366,0.769,2.81,1.414,4.308,1.885c0.818,0.259,1.707,0.413,2.467,0.799
				c-1.47,1.228-2.891,2.52-4.242,3.901c-2.18,2.23,1.241,5.657,3.424,3.424c0.986-1.008,2.02-1.959,3.075-2.881
				c0.335,1.623,0.671,3.246,1.005,4.87c0.63,3.05,5.299,1.759,4.67-1.287c-0.48-2.327-0.961-4.654-1.441-6.981
				c3.104-2.301,6.369-4.393,9.664-6.431c-0.193,3.028-0.508,6.046-0.346,9.087c0.066,1.256,0.145,2.463,0.195,3.646
				c-0.303,0.118-0.595,0.286-0.859,0.503c-1.722,1.404-3.533,2.684-5.409,3.874c-2.626,1.664-0.198,5.856,2.444,4.181
				c1.22-0.772,2.402-1.598,3.564-2.452c-0.18,1.058-0.449,2.13-0.846,3.233c-1.057,2.937,3.619,4.201,4.668,1.287
				c0.584-1.62,0.939-3.27,1.158-4.938c0.178,0.14,0.352,0.273,0.52,0.391c1.038,0.722,2.075,1.443,3.113,2.166
				c1.074,0.747,2.689,0.197,3.312-0.869c0.705-1.205,0.207-2.563-0.869-3.312c-1.168-0.813-2.335-1.626-3.502-2.438
				c-0.752-0.523-1.48-1.06-2.271-1.489c-0.018-3.965-0.366-7.977-0.092-11.918c0.007-0.09,0.009-0.182,0.015-0.272
				c3.521,3.437,6.638,7.179,10.515,10.251c0.604,0.479,1.229,0.93,1.85,1.385c-0.477,0.926-0.225,1.929,0.385,2.637
				c0.004,1.895,0.007,3.789,0.011,5.684c0.006,3.115,4.848,3.121,4.842,0c-0.003-1.58-0.006-3.16-0.009-4.742
				c1.623,1.039,3.262,2.055,4.905,3.06C294.002,283.818,296.438,279.633,293.781,278.008z"/>
		</g>
		<g>
			<path fill="#FF5A96" d="M311.501,164.083c-18.786-65.667,50.034-107.494,76.054-46.949
				c11.615,27.026,11.406,90.803-16.925,106.274c-21.075,11.51-56.869,8.934-74.302-15.424
				C287.525,195.683,274.682,145.855,311.501,164.083z"/>
			<path fill="#F8F8F8" d="M319.986,226.127l-1.149,8.133c-0.46,3.26,2.524,6.102,6.267,5.969l42.815-1.525
				c3.495-0.124,6.146-2.807,5.788-5.857l-0.938-7.996c-0.327-2.792-3.071-4.881-6.27-4.771l-40.729,1.389
				C322.801,221.568,320.353,223.541,319.986,226.127z"/>
			<path fill="#F8F8F8" d="M378.322,155.475c-1.557-0.952-3.115-1.906-4.655-2.886c1.502-0.402,3.005-0.804,4.506-1.206
				c3.008-0.805,1.731-5.477-1.287-4.669c-2.496,0.667-4.991,1.336-7.487,2.004c-0.334,0.089-0.606,0.232-0.838,0.404
				c-1.105-0.813-2.186-1.66-3.231-2.554c-3.596-3.076-6.585-6.769-10.03-10.006c3.466-2.146,6.935-4.286,10.407-6.422
				c0.243-0.15,0.487-0.297,0.731-0.445c0.055,0.035,0.099,0.074,0.158,0.106c2.823,1.531,5.794,2.402,8.981,2.733
				c1.303,0.135,2.422-1.209,2.422-2.421c0-1.422-1.115-2.284-2.422-2.421c-1.486-0.154-2.924-0.533-4.309-1.064
				c1.617-1.137,3.135-2.397,4.435-3.949c1.99-2.373-1.418-5.815-3.424-3.424c-1.16,1.383-2.538,2.562-4.017,3.628
				c-0.203-1.362-0.482-2.712-0.861-4.042c-0.853-2.991-5.526-1.72-4.67,1.287c0.529,1.858,0.86,3.721,0.991,5.64
				c-1.263,0.739-2.526,1.461-3.737,2.207c-2.197,1.353-4.388,2.715-6.581,4.072c-0.102-3.387-0.211-6.772,0.017-10.131
				c0.028-0.009,0.057-0.009,0.084-0.021c2.936-1.186,5.703-2.625,8.29-4.457c2.523-1.786,0.107-5.987-2.443-4.181
				c-1.64,1.16-3.36,2.205-5.163,3.085c0.057-0.264,0.101-0.529,0.165-0.792c0.731-3.028-3.936-4.32-4.67-1.287
				c-0.122,0.506-0.219,1.011-0.317,1.516c-1.852-1.381-3.702-2.763-5.553-4.145c-1.049-0.783-2.705-0.171-3.312,0.869
				c-0.723,1.235-0.183,2.527,0.869,3.312c2.393,1.786,4.784,3.572,7.177,5.359c0.044,0.032,0.093,0.048,0.138,0.076
				c-0.2,3.192-0.122,6.387-0.038,9.598c-3.605-2.946-7.358-5.77-11.251-8.308c0.414-2.375,0.556-4.78,0.383-7.2
				c-0.221-3.09-5.064-3.114-4.842,0c0.107,1.5,0.085,2.973-0.055,4.438c-0.475-0.271-0.947-0.547-1.427-0.808
				c-2.736-1.492-5.183,2.687-2.443,4.181c0.732,0.4,1.462,0.815,2.189,1.238c-2.279,1.511-4.624,2.915-7.042,4.202
				c-2.752,1.464-0.309,5.646,2.444,4.181c2.987-1.59,5.869-3.35,8.647-5.284c0.151-0.106,0.285-0.222,0.402-0.344
				c4.028,2.637,7.933,5.581,11.607,8.703c-3.688,2.298-7.364,4.607-10.86,7.156c-2.232-2.082-5.682-2.31-8.302-3.783
				c-2.72-1.53-5.163,2.651-2.444,4.181c1.367,0.769,2.81,1.414,4.307,1.885c0.82,0.258,1.708,0.414,2.467,0.799
				c-1.469,1.227-2.89,2.519-4.241,3.902c-2.18,2.23,1.241,5.656,3.424,3.423c0.986-1.009,2.02-1.958,3.075-2.88
				c0.335,1.623,0.67,3.246,1.005,4.869c0.63,3.05,5.298,1.759,4.669-1.287c-0.48-2.327-0.961-4.655-1.441-6.982
				c3.104-2.301,6.37-4.392,9.665-6.431c-0.193,3.029-0.508,6.047-0.347,9.088c0.067,1.256,0.146,2.461,0.196,3.645
				c-0.304,0.118-0.595,0.286-0.859,0.503c-1.722,1.404-3.532,2.685-5.409,3.874c-2.626,1.665-0.199,5.856,2.443,4.182
				c1.221-0.773,2.403-1.598,3.565-2.453c-0.18,1.058-0.45,2.13-0.847,3.233c-1.057,2.937,3.62,4.202,4.67,1.288
				c0.583-1.62,0.938-3.27,1.157-4.937c0.177,0.139,0.352,0.273,0.52,0.39c1.038,0.722,2.075,1.444,3.113,2.167
				c1.073,0.747,2.689,0.196,3.312-0.869c0.705-1.205,0.207-2.564-0.869-3.312c-1.168-0.813-2.335-1.625-3.503-2.438
				c-0.752-0.523-1.479-1.059-2.271-1.489c-0.017-3.965-0.365-7.977-0.091-11.917c0.007-0.091,0.009-0.182,0.015-0.273
				c3.52,3.436,6.638,7.178,10.515,10.251c0.604,0.479,1.229,0.928,1.849,1.385c-0.477,0.925-0.224,1.928,0.385,2.635
				c0.004,1.895,0.008,3.79,0.012,5.685c0.006,3.115,4.848,3.121,4.842,0c-0.003-1.581-0.006-3.161-0.009-4.742
				c1.623,1.038,3.262,2.054,4.905,3.059C378.544,161.286,380.979,157.101,378.322,155.475z"/>
		</g>
		<circle fill="#FFFFFF" cx="86.828" cy="290.035" r="14.715"/>
		<circle fill="#FFFFFF" cx="249.312" cy="127.309" r="6.935"/>
		<circle fill="#FFFFFF" cx="167.227" cy="258.889" r="6.42"/>
		<circle fill="#FFFFFF" cx="265.614" cy="371.44" r="5.927"/>
		<circle fill="#FFFFFF" cx="264.537" cy="171.103" r="4.849"/>
		<circle fill="#FFFFFF" cx="182.917" cy="120.016" r="17.746"/>
		<circle fill="#FFFFFF" cx="26.321" cy="195.027" r="2.769"/>
		<ellipse fill="#FFFFFF" cx="247.354" cy="164.014" rx="0" ry="1.959"/>
	</g>
</g>
<g id="Livello_1">
</g>
</svg>
